<svg width="69" height="69" viewBox="0 0 69 69" fill="none" xmlns="http://www.w3.org/2000/svg">
<path d="M5.11145 17.4988L34.4203 0.57735L63.7292 17.4988V51.3418L34.4203 68.2633L5.11145 51.3418V17.4988Z" stroke="#D9D9D9"/>
<path d="M21.4799 42.4203H17.8799V26.3403H26.7599C30.7199 26.3403 32.9759 28.0923 32.9759 31.1643C32.9759 33.7803 31.4639 35.3403 28.4399 35.6283V35.8203C29.8799 36.2043 30.4319 36.9723 31.0319 38.1003L33.3599 42.4203H29.1839L26.9759 38.2443C26.3279 36.9963 25.7279 36.5883 23.8559 36.5883H21.4799V42.4203ZM21.4799 29.5803V33.8763H26.7359C28.4399 33.8763 29.2079 33.3963 29.2079 31.7163C29.2079 30.1323 28.4399 29.5803 26.7359 29.5803H21.4799ZM42.4411 42.4203H34.6891V26.3403H42.4411C47.6011 26.3403 50.8651 29.3403 50.8651 34.3803C50.8651 39.4203 47.6011 42.4203 42.4411 42.4203ZM42.4411 29.5803H38.2891V39.1803H42.4411C45.7051 39.1803 47.0251 38.2443 47.0251 34.3803C47.0251 30.5163 45.7051 29.5803 42.4411 29.5803Z" fill="#D9D9D9"/>
</svg>
